<?xml version="1.0" encoding="UTF-8" standalone="no"?>
<svg
   xmlns:dc="http://purl.org/dc/elements/1.1/"
   xmlns:cc="http://creativecommons.org/ns#"
   xmlns:rdf="http://www.w3.org/1999/02/22-rdf-syntax-ns#"
   xmlns:svg="http://www.w3.org/2000/svg"
   xmlns="http://www.w3.org/2000/svg"
   xmlns:sodipodi="http://sodipodi.sourceforge.net/DTD/sodipodi-0.dtd"
   xmlns:inkscape="http://www.inkscape.org/namespaces/inkscape"
   inkscape:export-ydpi="8.8900003"
   inkscape:export-xdpi="8.8900003"
   inkscape:export-filename="/home/vitex/NetBeansProjects/PHPSwitch/src/com/vitexsoftware/phpswitch/php7.4.png"
   inkscape:version="1.0 (4035a4fb49, 2020-05-01)"
   sodipodi:docname="php7.4.svg"
   xml:space="preserve"
   width="711.20123"
   viewBox="0 0 711.20123 383.5975"
   version="1.1"
   id="svg3430"
   height="383.5975"><sodipodi:namedview
   inkscape:current-layer="svg3430"
   inkscape:window-maximized="1"
   inkscape:window-y="0"
   inkscape:window-x="1920"
   inkscape:cy="190.96335"
   inkscape:cx="168.32965"
   inkscape:zoom="1.7955537"
   showgrid="false"
   id="namedview41"
   inkscape:window-height="1171"
   inkscape:window-width="1920"
   inkscape:pageshadow="2"
   inkscape:pageopacity="0"
   guidetolerance="10"
   gridtolerance="10"
   objecttolerance="10"
   borderopacity="1"
   bordercolor="#666666"
   pagecolor="#ffffff"
   inkscape:document-rotation="0" />
  <title
   id="title3510">Official PHP Logo</title>
  <metadata
   id="metadata3436">
    <rdf:RDF>
      <cc:Work
   rdf:about="">
        <dc:format>image/svg+xml</dc:format>
        <dc:type
   rdf:resource="http://purl.org/dc/dcmitype/StillImage" />
        <dc:title>Official PHP Logo</dc:title>
        <dc:creator>
          <cc:Agent>
            <dc:title>Colin Viebrock</dc:title>
          </cc:Agent>
        </dc:creator>
        <dc:description />
        <dc:contributor>
          <cc:Agent>
            <dc:title />
          </cc:Agent>
        </dc:contributor>
        <cc:license
   rdf:resource="http://creativecommons.org/licenses/by-sa/4.0/" />
        <dc:rights>
          <cc:Agent>
            <dc:title>Copyright Colin Viebrock 1997 - All rights reserved.</dc:title>
          </cc:Agent>
        </dc:rights>
        <dc:date>1997</dc:date>
      </cc:Work>
      
    <cc:License
   rdf:about="http://creativecommons.org/licenses/by-sa/4.0/"><cc:permits
     rdf:resource="http://creativecommons.org/ns#Reproduction" /><cc:permits
     rdf:resource="http://creativecommons.org/ns#Distribution" /><cc:requires
     rdf:resource="http://creativecommons.org/ns#Notice" /><cc:requires
     rdf:resource="http://creativecommons.org/ns#Attribution" /><cc:permits
     rdf:resource="http://creativecommons.org/ns#DerivativeWorks" /><cc:requires
     rdf:resource="http://creativecommons.org/ns#ShareAlike" /></cc:License></rdf:RDF>
  </metadata>
  <defs
   id="defs3434">
    <clipPath
   id="clipPath3444"
   clipPathUnits="userSpaceOnUse">
      <path
   id="path3446"
   d="M 11.52,162 C 11.52,81.677 135.307,16.561 288,16.561 l 0,0 c 152.693,0 276.481,65.116 276.481,145.439 l 0,0 c 0,80.322 -123.788,145.439 -276.481,145.439 l 0,0 C 135.307,307.439 11.52,242.322 11.52,162" />
    </clipPath>
    <radialGradient
   spreadMethod="pad"
   r="1"
   id="radialGradient3452"
   gradientUnits="userSpaceOnUse"
   gradientTransform="matrix(363.05789,0,0,-363.05789,177.52002,256.30713)"
   fy="0"
   fx="0"
   cy="0"
   cx="0">
      <stop
   style="stop-opacity:1;stop-color:#aeb2d5"
   offset="0"
   id="stop3454" />
      <stop
   style="stop-opacity:1;stop-color:#aeb2d5"
   offset="0.3"
   id="stop3456" />
      <stop
   style="stop-opacity:1;stop-color:#484c89"
   offset="0.75"
   id="stop3458" />
      <stop
   style="stop-opacity:1;stop-color:#484c89"
   offset="1"
   id="stop3460" />
    </radialGradient>
    <clipPath
   id="clipPath3468"
   clipPathUnits="userSpaceOnUse">
      <path
   id="path3470"
   d="M 0,324 576,324 576,0 0,0 0,324 Z" />
    </clipPath>
    <clipPath
   id="clipPath3480"
   clipPathUnits="userSpaceOnUse">
      <path
   id="path3482"
   d="M 0,324 576,324 576,0 0,0 0,324 Z" />
    </clipPath>
  
    
    
    
  </defs>
  <g
   transform="matrix(1.25,0,0,-1.25,-4.4,394.29875)"
   id="g3440">
      <g
   clip-path="url(#clipPath3444)"
   id="g3442">
        <g
   id="g3448">
          <g
   id="g3450">
            <path
   d="M 11.52,162 C 11.52,81.677 135.307,16.561 288,16.561 v 0 c 152.693,0 276.481,65.116 276.481,145.439 v 0 c 0,80.322 -123.788,145.439 -276.481,145.439 v 0 C 135.307,307.439 11.52,242.322 11.52,162"
   id="path3462"
   style="fill:url(#radialGradient3452);stroke:none" />
          </g>
        </g>
      </g>
    </g><g
   transform="matrix(1.25,0,0,-1.25,-4.4,394.29875)"
   id="g3464">
      <g
   clip-path="url(#clipPath3468)"
   id="g3466">
        <g
   id="g3472"
   transform="translate(288,27.3594)">
          <path
   d="M 0,0 C 146.729,0 265.68,60.281 265.68,134.641 265.68,209 146.729,269.282 0,269.282 -146.729,269.282 -265.68,209 -265.68,134.641 -265.68,60.281 -146.729,0 0,0"
   id="path3474"
   style="fill:#777bb3;fill-opacity:1;fill-rule:nonzero;stroke:none" />
        </g>
      </g>
    </g><g
   style="opacity:0.2"
   transform="matrix(1.3549852,0,0,1.302415,-39.559659,-16.777192)"
   id="g920"><g
     id="g903"><g
       transform="matrix(0.88483037,0,0,-0.88483037,29.441087,295.31693)"
       id="g3476">
      <g
   clip-path="url(#clipPath3480)"
   id="g3478">
        <g
   id="g3484"
   transform="translate(161.7344,145.3066)">
          <path
   d="m 0,0 c 12.065,0 21.072,2.225 26.771,6.611 5.638,4.341 9.532,11.862 11.573,22.353 1.903,9.806 1.178,16.653 -2.154,20.348 C 32.783,53.086 25.417,55 14.297,55 H -4.984 L -15.673,0 Z m -63.063,-67.75 c -0.895,0 -1.745,0.4 -2.314,1.092 -0.57,0.691 -0.801,1.601 -0.63,2.48 L -37.679,81.573 C -37.405,82.982 -36.17,84 -34.734,84 H 26.32 C 45.508,84 59.79,78.79 68.767,68.513 77.792,58.182 80.579,43.741 77.05,25.592 75.614,18.198 73.144,11.331 69.709,5.183 66.27,-0.972 61.725,-6.667 56.198,-11.747 49.582,-17.939 42.094,-22.429 33.962,-25.071 25.959,-27.678 15.681,-29 3.414,-29 h -24.722 l -7.06,-36.322 c -0.274,-1.41 -1.508,-2.428 -2.944,-2.428 z"
   id="path3486"
   style="fill:#000000;fill-opacity:1;fill-rule:nonzero;stroke:none" />
        </g>
        <g
   id="g3488"
   transform="translate(159.2236,197.3071)">
          <path
   d="m 0,0 h 16.808 c 13.421,0 18.083,-2.945 19.667,-4.7 2.628,-2.914 3.124,-9.058 1.435,-17.767 C 36.012,-32.217 32.494,-39.13 27.452,-43.012 22.29,-46.986 13.898,-49 2.511,-49 H -9.523 Z m 28.831,35 h -61.055 c -2.872,0 -5.341,-2.036 -5.889,-4.855 l -28.328,-145.751 c -0.342,-1.759 0.12,-3.578 1.259,-4.961 1.14,-1.383 2.838,-2.183 4.63,-2.183 h 31.75 c 2.873,0 5.342,2.036 5.89,4.855 L -16.324,-84 H 5.925 c 12.582,0 23.174,1.372 31.479,4.077 8.541,2.775 16.399,7.48 23.354,13.984 5.752,5.292 10.49,11.232 14.08,17.657 3.591,6.427 6.171,13.594 7.668,21.302 3.715,19.104 0.697,34.402 -8.969,45.466 C 63.965,29.444 48.923,35 28.831,35 M -16.802,-55 H 2.511 c 12.801,0 22.336,2.411 28.601,7.234 6.266,4.824 10.492,12.875 12.688,24.157 2.101,10.832 1.144,18.476 -2.871,22.929 C 36.909,3.773 28.87,6 16.808,6 H -4.946 L -16.802,-55 M 28.831,29 C 47.198,29 60.597,24.18 69.019,14.539 77.44,4.898 79.976,-8.559 76.616,-25.836 75.233,-32.953 72.894,-39.46 69.601,-45.355 66.304,-51.254 61.999,-56.648 56.679,-61.539 50.339,-67.472 43.296,-71.7 35.546,-74.218 27.796,-76.743 17.925,-78 5.925,-78 h -27.196 l -7.531,-38.75 h -31.75 L -32.224,29 h 61.055"
   id="path3490"
   style="fill:#ffffff;fill-opacity:1;fill-rule:nonzero;stroke:none" />
        </g>
        <g
   id="g3492"
   transform="translate(311.583,116.3066)">
          <path
   d="m 0,0 c -0.896,0 -1.745,0.4 -2.314,1.092 -0.571,0.691 -0.802,1.6 -0.631,2.48 L 9.586,68.061 C 10.778,74.194 10.484,78.596 8.759,80.456 7.703,81.593 4.531,83.5 -4.848,83.5 H -27.55 L -43.305,2.428 C -43.579,1.018 -44.814,0 -46.25,0 h -31.5 c -0.896,0 -1.745,0.4 -2.315,1.092 -0.57,0.691 -0.801,1.601 -0.63,2.48 l 28.328,145.751 c 0.274,1.409 1.509,2.427 2.945,2.427 h 31.5 c 0.896,0 1.745,-0.4 2.315,-1.091 0.57,-0.692 0.801,-1.601 0.63,-2.481 L -21.813,113 H 2.609 c 18.605,0 31.221,-3.28 38.569,-10.028 7.49,-6.884 9.827,-17.891 6.947,-32.719 L 34.945,2.428 C 34.671,1.018 33.437,0 32,0 Z"
   id="path3494"
   style="fill:#000000;fill-opacity:1;fill-rule:nonzero;stroke:none" />
        </g>
        <g
   id="g3496"
   transform="translate(293.6611,271.0571)">
          <path
   d="m 0,0 h -31.5 c -2.873,0 -5.342,-2.036 -5.89,-4.855 l -28.328,-145.751 c -0.342,-1.759 0.12,-3.578 1.26,-4.961 1.14,-1.383 2.838,-2.183 4.63,-2.183 h 31.5 c 2.872,0 5.342,2.036 5.89,4.855 l 15.283,78.645 h 20.229 c 9.363,0 11.328,-2 11.407,-2.086 0.568,-0.611 1.315,-3.441 0.082,-9.781 l -12.531,-64.489 c -0.342,-1.759 0.12,-3.578 1.26,-4.961 1.14,-1.383 2.838,-2.183 4.63,-2.183 h 32 c 2.872,0 5.342,2.036 5.89,4.855 l 13.179,67.825 c 3.093,15.921 0.447,27.864 -7.861,35.5 -7.928,7.281 -21.208,10.82 -40.599,10.82 H -0.253 L 5.89,-7.145 C 6.231,-5.386 5.77,-3.566 4.63,-2.184 3.49,-0.801 1.792,0 0,0 m 0,-6 -7.531,-38.75 h 28.062 c 17.657,0 29.836,-3.082 36.539,-9.238 6.703,-6.16 8.711,-16.141 6.032,-29.938 l -13.18,-67.824 h -32 l 12.531,64.488 c 1.426,7.336 0.902,12.34 -1.574,15.008 -2.477,2.668 -7.746,4.004 -15.805,4.004 h -25.176 l -16.226,-83.5 h -31.5 L -31.5,-6 H 0"
   id="path3498"
   style="fill:#ffffff;fill-opacity:1;fill-rule:nonzero;stroke:none" />
        </g>
        <g
   id="g3500"
   transform="translate(409.5498,145.3066)">
          <path
   d="m 0,0 c 12.065,0 21.072,2.225 26.771,6.611 5.638,4.34 9.532,11.861 11.574,22.353 1.903,9.806 1.178,16.653 -2.155,20.348 C 32.783,53.086 25.417,55 14.297,55 H -4.984 L -15.673,0 Z m -63.062,-67.75 c -0.895,0 -1.745,0.4 -2.314,1.092 -0.57,0.691 -0.802,1.601 -0.631,2.48 L -37.679,81.573 C -37.404,82.982 -36.17,84 -34.733,84 H 26.32 C 45.509,84 59.79,78.79 68.768,68.513 77.793,58.183 80.579,43.742 77.051,25.592 75.613,18.198 73.144,11.331 69.709,5.183 66.27,-0.972 61.725,-6.667 56.198,-11.747 49.582,-17.939 42.094,-22.429 33.962,-25.071 25.959,-27.678 15.681,-29 3.414,-29 h -24.723 l -7.057,-36.322 c -0.275,-1.41 -1.509,-2.428 -2.946,-2.428 z"
   id="path3502"
   style="fill:#000000;fill-opacity:1;fill-rule:nonzero;stroke:none" />
        </g>
        <g
   id="g3504"
   transform="translate(407.0391,197.3071)">
          <path
   d="M 0,0 H 16.808 C 30.229,0 34.891,-2.945 36.475,-4.7 39.104,-7.614 39.6,-13.758 37.91,-22.466 36.012,-32.217 32.493,-39.13 27.452,-43.012 22.29,-46.986 13.898,-49 2.511,-49 H -9.522 Z m 28.831,35 h -61.054 c -2.872,0 -5.341,-2.036 -5.889,-4.855 L -66.44,-115.606 c -0.342,-1.759 0.12,-3.578 1.259,-4.961 1.14,-1.383 2.838,-2.183 4.63,-2.183 h 31.75 c 2.872,0 5.342,2.036 5.89,4.855 L -16.324,-84 H 5.925 c 12.582,0 23.174,1.372 31.479,4.077 8.541,2.775 16.401,7.481 23.356,13.986 5.752,5.291 10.488,11.23 14.078,17.655 3.591,6.427 6.171,13.594 7.668,21.302 3.715,19.105 0.697,34.403 -8.969,45.467 C 63.965,29.444 48.924,35 28.831,35 M -16.801,-55 H 2.511 c 12.801,0 22.336,2.411 28.601,7.234 6.267,4.824 10.492,12.875 12.688,24.157 2.102,10.832 1.145,18.476 -2.871,22.929 C 36.909,3.773 28.87,6 16.808,6 H -4.946 L -16.801,-55 M 28.831,29 C 47.198,29 60.597,24.18 69.019,14.539 77.441,4.898 79.976,-8.559 76.616,-25.836 75.233,-32.953 72.894,-39.46 69.601,-45.355 66.304,-51.254 61.999,-56.648 56.679,-61.539 50.339,-67.472 43.296,-71.7 35.546,-74.218 27.796,-76.743 17.925,-78 5.925,-78 h -27.196 l -7.53,-38.75 h -31.75 L -32.223,29 h 61.054"
   id="path3506"
   style="fill:#ffffff;fill-opacity:1;fill-rule:nonzero;stroke:none" />
        </g>
      </g>
    </g></g></g>
<text
   id="text924"
   y="284.01373"
   x="105.03837"
   style="font-style:normal;font-weight:normal;font-size:56.4458px;line-height:1.25;font-family:sans-serif;letter-spacing:0px;word-spacing:0px;fill:#2fb72f;fill-opacity:1;stroke:#000000;stroke-width:7.62019;stroke-miterlimit:4;stroke-dasharray:none;stroke-opacity:1;"
   xml:space="preserve"><tspan
     style="font-style:italic;font-variant:normal;font-weight:bold;font-stretch:normal;font-size:270.94px;font-family:sans-serif;-inkscape-font-specification:'sans-serif Bold Italic';opacity:0.314821;stroke:#000000;stroke-width:7.62019;stroke-miterlimit:4;stroke-dasharray:none;stroke-opacity:1;fill:#2fb72f;fill-opacity:1;"
     y="284.01373"
     x="105.03837"
     id="tspan922"
     sodipodi:role="line">7.4</tspan></text></svg>
